<?xml version="1.0" encoding="UTF-8"?><svg id="Vrstva_2" xmlns="http://www.w3.org/2000/svg" viewBox="0 0 1167.17 716.06"><defs><style>.cls-1{fill:none;stroke:#fff;stroke-miterlimit:10;stroke-width:3px;}</style></defs><g id="Vrstva_1-2"><path class="cls-1" d="m396.65,231.94c60.93,38.92,148.69-4.82,148.69-4.82,2.55-2.68,5.4-5.05,8.39-7.23,1.75-1.27,3.35-2.67,4.8-4.2,3.4-3.58,7.81-5.7,11.71-8.53l.3-.15c7.47-2.04,14.7-5.31,22.7-4.59,1.35.12,3.57.26,4.93.29,9.22.22,18.35.95,27.42,2.89,2.88.62,5.79,1.04,9.23,2.05-1.73,1.01-2.07,2.42-2.67,3.7-.7,1.49-.7,3.83-3.53,3.34-.94-.16-1.02,1.19-1.44,1.91-1.02,1.73-.93,4.26-3.55,4.88-.62.15-.5,1.05-.71,1.61-1.02,2.7-1.6,5.76-5.17,6.48,16.98,7.69,40.21-5.86,40.21-5.86,4.07-9.78,7.5-19.9,9.22-30.42,1.39-8.49,1.01-17.05.4-25.62-.59-8.26-2.12-16.23-5.31-23.88-1.09-2.61-1.79-5.36-2.16-8.16-.51-3.91-1.9-7.51-3.55-11.05-3.2-6.85-6.6-13.61-8.69-20.92-.14-.47-.48-.97-.41-1.41.74-5.21-.33-10.34-.62-15.5-.1-1.81,3.43-6.13,5.44-6.5,3.09-.58,6.21-.74,9.18.5,1.36.57,2.8.94,4.28.94,6.59-.01,11.2,3.45,13.13,9.71.18.59.43,1.16.65,1.75,1.07,2.82,3.17,5.04,4.47,7.69,1.23,2.5,1.84,5.31,2.89,8.5,2.54-2.67,2.65-5.56,2.39-8.26-.27-2.77-.1-5.16,1.88-7.25.61-.65.81-1.56.84-2.43.06-1.96,1.1-3.38,2.08-5.01,1.88-3.12,4.08-4.87,7.85-4.24,1.64.28,2.1-.8,2.24-2.24.68-6.57.63-13.15.69-19.74.09-9.11-1.52-18.06-2.26-27.09-.22-2.72-.45-5.45-.71-8.16-.12-1.3-.13-2.7,1.16-3.28,1.88-.84,2.2-2.46,2.65-4.11.78-2.91,4.34-4.21,6.68-2.32,1.5,1.2,2.98,1.28,4.6.75,1.68-.55,3.06-.18,4.75.54s3.37,1.16,5.13,1.47c2.63.46,4.21,1.73,4.63,4.27.2,1.22.46,2.44.7,3.66.34,1.74.91,3.01,3.18,2.45,1.29-.32,2.37.37,2.97,1.71.29.65.88,1.17,1.34,1.75.73.93.43,2.71,1.97,2.9,1.47.18,1.12-2.05,2.77-2.52-.24,2.87.49,5.75-3.03,6.9-1.17.38-1.36,1.45-1.43,2.41-.54,7.36-3.35,14.42-2.81,21.92,0,.07,0,.14-.02.2-2.22,8.9-1.88,18.25-4.89,27.04-1.23,3.61-1.75,7.5-2.24,11.32-.49,3.84-1.78,7.5-2.38,11.28-1.28,8.09-3.49,15.98-4.75,24.07-1.34,8.61-3.19,17.14-5.29,25.6-3.54,14.24-7.07,28.49-11.75,42.41-1.78,5.28-4.09,10.4-5.53,15.76,0,0,7.63,26.63,49.89,3.19.95-8.89,2.74-17.69,3.5-26.58.76-8.9,2.94-17.66,2.62-26.66-.02-.61-.04-1.4.3-1.8,1.99-2.29,1.63-5.1,1.92-7.79.39-3.58.86-7.15,1.35-10.71.39-2.85.9-5.63,3.3-7.67,1.33-1.13,1.03-2.55-.27-3.49-1.9-1.36-1.93-3.24-2.09-5.28-.4-5.08,1.24-9.82,2.26-14.66.31-1.45.77-2.91.84-4.37.39-7.81,3.9-14.86,5.37-22.4.34-1.72.64-3.4.54-5.16-.2-3.39,1.05-6.6,1.59-9.89.38-2.27.79-4.7,1.72-6.83,1.99-4.6,2.24-9.41,2.2-14.25-.04-4.2.78-8.24,2.39-11.98,1.6-3.74,3.42-7.49,4.62-11.29,1.44-4.55,4.45-7.87,6.81-11.68,2.14-3.45,5.56-5.26,9.57-5.62,1.72-.16,3.45-.22,5.18-.43,2.45-.3,4.91-.58,7.4-.01,8,1.83,16.25,2.34,24.19,4.53l.32.07c6.23,1.04,12.46,2.16,18.71,3.09,3.76.56,7.42.24,10.75-1.98,2.62-1.74,5.75-1.41,8.69-1.64,1.51-.12,3.44,2.83,2.99,4.37-1.54,5.31-1.57,10.92-3.44,16.22-.79,2.25-1.33,4.6-2.34,6.86-.96,2.15-2.25,4.21-1.77,6.99.24,1.37-.63,3.31-1.29,4.94-1.11,2.74-2.04,5.6-2.02,8.64.01,2.28-.45,4.39-2.34,5.99-.42.35-.62.93-.4,1.44.91,2.09-.52,3.49-1.34,5.11-2.04,4.06-4.33,8.06-3.77,12.89.04.36,0,.82-.19,1.09-2.23,3.08-2.16,7.01-3.84,10.28-.44.85-.37,1.56-.34,2.45.09,2.61.07,5.26-2.14,7.22-.9.8-.47,1.4.16,2.17.94,1.15.41,2.3-.81,2.67-2.54.76-4.62,2.39-7.04,3.39-5.33,2.22-10.71,2.1-16.09.6-6.25-1.74-12.68-2.51-18.99-3.91-4.24-.95-8.48-1.93-12.74-2.75-2.17-.42-4.41-.7-6.62-.68-1.23,0-2.34.2-3.57-.32-1.56-.66-2.97-.28-3.44,1.67-.37,1.56-1.26,2.52-2.82,3.16-2.12.88-2.35,1.8-.68,3.19,1.88,1.57,1.75,2.77.57,4.72-1.63,2.7-1.45,5.96-1.88,9-.17,1.19.96,1.72,1.77,2.19,3.96,2.28,5.08,5.71,4.64,10.09-.56,5.68.83,11.43-.25,17.09-1.51,7.94-1.27,16.1-3.19,23.99-.52,2.15-.38,4.44-.62,6.66-.75,6.84-1.41,13.69-2.36,20.5-.41,2.93-3.26,11.11-1.5,8.74,37.19-50.21,67.37-8.22,67.37-8.22,3.32-2.97,5.81-6.79,9.34-9.55,3.5-2.74,6.38-6.13,9.77-9.01,3.6-3.05,7.35-6.28,10.13-10.26,1.72-2.47,4.14-4.27,5.89-6.71.92-1.27,2.34-1.77,3.95-1.67,1.61.1,3.23.16,4.84.19,3.09.06,4.34-1.32,3.69-4.38-.49-2.33-1.18-4.66-.07-6.93,3.85-7.89,5.02-16.6,7.52-24.89,2.17-7.19,4.37-14.5,5.08-22.07.22-2.33,1.18-4.21,2.46-6.12,2.69-4,5.83-7.67,8.42-11.76,2.4-3.8,6.2-6.4,9.43-9.47,6.13-5.82,13.34-10.28,19.97-15.47,7.28-5.71,14.82-11.18,22.94-15.71,5.7-3.19,11.9-5.02,18.34-5.95,6.1-.88,10.84-4.09,14.88-8.47,1.88-2.03,1.8-2.44.27-4.9-.89-1.43-2.27-2.59-1.56-4.63.3-.87-.45-1.55-1.21-2.11-1.08-.8-2.06-1.75-3.3-2.83,2.17-1.82,4.74-2.54,5.38-5.37.25-1.09,1.52-1.05,2.55-1.07,7.05-.16,13.72,1.54,19.75,4.99,3.04,1.74,5.49,4.67,7.25,7.78,1.74,3.07,2.08,6.62,1.65,10.16-.28,2.29-1.32,4.47-2.76,6.01-2.76,2.94-5.44,6.18-9.68,7.26-1.58.4-2.91,1.34-4.06,2.54-1.63,1.69-3.14,3.52-5.27,4.68-1.27.7-1.68,2.1-2.33,3.3-2.27,4.18-5.42,6.83-10.41,7.66-2.3.39-4.81,1.63-6.88,3.06-2.68,1.85-6.06,2.51-8.33,5-3.11-.27-4.31,3.2-7.34,3.56-2.62.32-5.09,1.89-7.64,2.89-.57.23-1.29.26-1.74.62-5.39,4.38-11.78,7.33-16.85,12.22-2.9,2.8-6.35,5.09-9.97,6.98-1.97,1.03-3.22,2.68-4.54,4.31-.56.69-.82,1.61-.49,2.47.83,2.15.79,4.38.76,6.62-.03,2.11.78,3.57,3.03,4.04,1.37.28,2.66.92,3.14,2.36.58,1.75,1.97,2.48,3.43,3.07,5.49,2.24,11.17,4.02,17.03,4.9s11.73,2.71,17.6,4.01c3.04.68,6.02,2.06,8.91,3.56,3.79,1.97,7.95,3.3,12.01,4.69,9.41,3.23,18.63,6.98,26.89,12.52,6.03,4.04,10.95,9.34,12.83,16.78.62,2.46.55,4.93.43,7.41-.03.74-.21,1.65-1.2,1.52-.91-.12-1-1.04-.97-1.78.13-2.48.39-4.97-.01-7.44-.32-1.97-.73-3.91-3.2-4.5-.53,1.24.13,2.26.35,3.3.94,4.51,1.61,9,.73,13.64-.64,3.4-.13,6.96-1.39,10.31-.4,1.07.06,2.06,1.1,2.46,1.14.44,1.5-.63,1.83-1.38,1.16-2.59,2.22-5.23,3.36-7.82,3.61-8.18,7.15-16.37,9.84-24.92,1.93-6.14,4.41-12.1,6.69-18.12.25-.67.66-1.48,1.23-1.8,1.21-.7,1.36-1.56,1.12-2.79-.11-.55.08-1.28.38-1.77,3.17-5.23,3.85-11.23,5.25-16.99,1.93-7.94,2.97-16.09,5.37-23.94,1.14-3.74.43-7.68.93-11.49.8-6.16-1.47-11.38-4.47-16.51-2.31-3.96-4.79-7.87-6.79-11.94-2.89-5.88-6.78-11.12-9.69-16.95-.33-.66-.68-1.37-1.2-1.87-5.43-5.22-9.03-11.75-13.03-18-.77-1.19-1.64-2.29-2.96-2.7-2.17-.66-3.48-2.21-4.86-3.85-3.12-3.7-6.66-6.94-10.73-9.65-2.77-1.84-5.22-4.17-7.72-6.39-.6-.54-.86-1.48-1.22-2.27-.21-.46-.25-1.21.27-1.27,2.83-.3,1.79-1.91,1.34-3.47-.48-1.68,1.33-3.89,3.8-4.44,1.41-.31,2.87-.46,4.28.55,2.51,1.8,5.16,3.32,8.28,4.07,1.74.42,3.43,1.57,4.82,2.76,4.93,4.25,11.18,6.44,16.18,10.56,6.3,5.19,12.74,10.23,17.46,17.03,1.68,2.42,3.92,4.38,5.18,7.18.9,2,4.86,3,6.92,2.3.54-.18.8-.56.84-1.09.07-.99.26-1.99.15-2.96-.4-3.59-.05-7.35-3.09-10.25-1.88-1.79-1.73-2.93.54-4.38,1.85-1.19.9-2.42.38-3.49-2.17-4.4-.59-8.45,1-12.5.26-.66.96-.7,1.61-.59,3.43.54,6.85,1.27,10.24-.31.67-.31,1.48.02,2.08.53,2.48,2.12,5.45,3.46,8.26,5.03,2.04,1.14,3.21,3.08,4.83,4.59.73.69.64,1.58.38,2.44-1.18,3.8.23,7.34,1.08,10.93.29,1.23,1.55,1.54,2.34,2.29.54.51,1.46,1.21.92,1.81-1.43,1.59-.3,2.83.04,4.33,1.84,8.1,3.12,16.22,2.96,24.63-.21,10.92-2.67,21.36-5.17,31.87-1.74,7.35-2.48,14.94-1.82,22.47.59,6.77-.29,13.35-1.23,19.98-.87,6.13-1.94,12.23-2.04,18.49-.08,4.81-1.13,9.61-1.71,14.41-1.07,8.74-2.52,17.41-3.94,26.09-1.42,8.69-3.06,17.33-5.41,25.79-1.75,6.29-4,12.49-5.54,18.8-1.64,6.73-3.9,13.7-1.47,20.83-.49,4.17.46,8.24.94,12.72,3.58-.43,7.26-.67,10.87-1.33,8.52-1.57,17.07-1.2,25.64-.87,3.31,1.94,7.06.29,10.52,1.33,3.32,1,6.74,1.67,10.12,2.5,2.55.63,4.98,1.44,7.12,3.1,1.57,1.22,3.44,2,2.88,4.61-.21.98.8,1.77,1.48,2.49,4.69,4.99,7.7,10.91,9.57,17.44.41,1.42.86,2.96.71,4.38-.29,2.87-.24,5.68.09,8.53.12,1-.13,1.96-.71,2.84-1.34,2.01-.97,4.4-1.42,6.61-.15.73.1,1.76.62,2.29.43.44.9.85,1.36,1.27,4.11,3.79,4.41,4.87,2.51,9.99-.57,1.53-.93,3.07-1.14,4.69-.26,2.02-.58,4.06-1.98,5.73-.29.35-.44.79-.51,1.24-.8,5.59-3.73,10.11-7.22,14.35-.4.48-.93.93-.84,1.59.21,1.49-.77,2.17-1.71,3.04-1.34,1.25-2.9,2.43-2.96,4.55,0,.24-.08.58-.25.68-2.4,1.45-3.17,4.08-4.69,6.17-2.93,4.02-5.63,7.99-6.67,12.92-.18.84-.22,2.07-.77,2.42-2.84,1.82-3.01,4.98-4.17,7.63-.45,1.03-.94,2.02-1.8,2.8-1.17,1.05-1.42,2.5-1.92,3.91-1.44,4.06-2.41,8.34-5.03,11.91-.4.55-.93,1.52-1.17,2.16-1.91,5.16-5.21,9.43-8.54,13.73-1.74,2.24-3.33,4.62-4.96,6.95-2.58,3.69-6.15,6.48-8.82,10.06-.29.39-.75.65-1.39.56-.76-.95.02-1.62.64-2.07,1.97-1.44,2.16-3.86,3.35-5.73.28-.44.23-.99-.25-1.32-.46-.31-.99-.16-1.39.15-2.17,1.67-4.31,3.37-5.54,5.92-.98,2.04-2.14,3.9-4.1,5.19-.6.39-1,1.09-1.43,1.7-.37.5-.7,1.09-.22,1.69.45.55,1.08.58,1.69.3.45-.2.85-.5,1.29-.74.45-.25.96-.39,1.36.02.52.53.39,1.2.04,1.71-.56.81-1.19,1.6-1.89,2.29-2.02,2.01-4.32,3.77-5.47,6.51-.14.33-.4.69-.71.85-4.55,2.41-6.88,7.06-10.21,10.62-2.95,3.16-6.11,6.08-9.16,9.13-1.28,1.28-3.02,2.33-2.63,4.61.05.31-.16.8-.42,1-3.92,3.17-5.31,8.73-10.37,10.84-1.3.54-1.71,2.12-2.69,3.03-2.43,2.28-4.01,5.43-7.17,6.98-.51.25-.91.86-1.19,1.39-2.36,4.59-5.77,8.3-9.48,11.82-1.6,1.52-2.78,3.49-4.08,5.3-1.9,2.65-3.87,5.18-6.96,6.56-.55.25-1.21.61-1.47,1.11-1.7,3.26-4.64,5.43-6.98,8.12-1.3,1.5-2.22,3.32-2.52,5.28-.5,3.24-2.05,5.63-5.19,6.83-1.02.39-1.94,1.1-2.84,1.76-4.17,3.04-7.09,7.59-11.98,9.84-1.38.64-2.45,2.08-3.19,3.57-.27.55-.57,1.26-1.06,1.5-4.14,2.03-5.3,6.43-7.8,9.74-1.21,1.61-2.42,3.19-4.05,4.32-3.2,2.21-6.06,4.71-8.12,8.05-.67,1.1-1.63,1.84-2.92,2.01-2.26.3-4.35,1.27-6.02,2.82-1.03.96-2.47,1.15-3.78,1.5-2.01.55-4.06.96-5.68,2.44-.42.38-1.21.75-1.77.77-3.76.11-6.85,1.59-9.67,4.07-1.32,1.16-2.88,2.43-5.03,1.91-.89-.22-1.69.35-2.34.95-1.2,1.11-2.54,1.96-4.01,2.67-1.62.78-2.92,2.08-3.15,3.92-.24,1.91-1.41,2.93-2.94,3.51-5.14,1.95-7.84,6.21-10.31,10.68-.37.67-.58,1.53-1.38,1.57-3.43.2-4.29,3.12-5.56,5.39-.86,1.54-1.66,3-2.97,4.2-2.06,1.89-3.63,4.03-3.78,7.02-.12,2.28-1.51,3.54-3.79,3.92-2.55.43-5.11.68-7.5,2.01-1.66.92-4.63-1.23-4.95-3.31-.21-1.35-.12-2.74-.36-4.08-.61-3.49-1.53-3.99-4.81-2.93-1.01.33-1.94,1.17-3.29.64-.1-1.48,1.3-1.96,1.96-2.9,1.02-1.47.85-2.71-.84-3.15-2.12-.56-2.23-2.12-2.49-3.67-.12-.69-.06-1.66.34-2.16,2.57-3.19.96-6.95,1.6-10.39.15-.79.1-1.45-.43-2.09-.82-1-.73-2.15-.15-3.15,1.29-2.22.86-4.47.55-6.81-.41-3.14-.58-6.32-.88-9.48-.14-1.5-.45-3.95-.74-5.43-.35-1.8-.39-3.47.29-5.29.95-2.54.62-5.31-.75-7.54-2.17-3.54-3.42-7.06-2.45-11.24.33-1.44.22-3.03-.42-4.47-.56-1.27-2.07-1.62-3.21-.83-3.87,2.69-6.91,6.26-10.14,9.63-.25.26-.53.59-.61.93-1.01,4-3.48,6.97-6.5,9.63-1.44,1.26-1.96,3.03-2.36,4.93-1.58,7.47-.3,7-8.45,11.48-.44.24-.88.46-1.32.69-1.64.86-2.76,2.18-3.09,3.99-.3,1.64-1.38,2.91-1.9,4.34-1.27,3.53-4.06,5.58-6.62,7.85-1.19,1.05-1.85,1.9-1.09,3.45.88,1.78.22,3.08-1.34,4.12-1.92,1.28-3.36,2.88-3.78,5.3-.14.81-.66,1.66-1.24,2.26-2.14,2.2-2.71,4.94-2.96,7.84-.26,2.94-2.2,4.95-5.04,4.64-2.57-.28-5.56.45-7.45-2.34-.22-.33-.54-.5-.91-.61-1.84-.53-3.4-1.83-4.07-3.61-.76-2.03.34-2.8,1.26-3.65,1.23-1.13,2.04-2.27.3-3.66-.62-.49-.91-1.17-.77-1.98.35-2,.37-3.92-.73-5.77-.45-.76-.17-1.79.28-2.51,1.95-3.17.85-6.23-.45-9.27-.56-1.31-.86-2.71-.95-4.13-.11-1.88-.91-3.74-.84-5.46.15-3.67-1.65-6.99-1.14-10.75.48-3.54.51-7.09,1.43-10.64.67-2.6,1.18-5.39.27-8.31-1-3.2-.12-6.66.06-9.96.1-1.76.97-3.51.37-5.39-.37-1.15.47-1.85,1.07-2.62,1.09-1.39,2.01-2.83,2.17-4.66.11-1.31.77-2.41,1.79-3.16,2.42-1.78,3.73-4.29,4.74-6.99.64-1.7,1.49-3.02,3.23-3.84,1.69-.8,2.6-2.3,2.2-4.3-.67-3.38.91-6.2,2.89-8.49,2.65-3.06,5.76-5.64,9.92-6.88,2.57-.77,3.94-3.56,4.07-6.09.09-1.64.64-2.43,1.61-3.39,1.45-1.46,3.38-2.58,3.66-4.96.05-.41.52-.87.91-1.14-13.61-19.46-86.47-4.68-86.47-4.68-1.06,1.81-2.91,2.67-4.52,3.8-1.57,1.1-2.95,2.32-3.57,4.17-1.12,3.34-3.3,5.77-6.23,7.62-.94.6-1.89,1.22-2.72,1.97-1.64,1.49-1.39,2.84.62,3.62.57.22,1.21.27,1.8.46.68.22,1.11.85.85,1.44-1.19,2.68-.7,5.9-3.9,7.95-3.75,2.4-4.91,6.9-6.55,10.87-.28.69-.35,1.62-.84,2.04-4.33,3.67-6.6,9.17-11.76,12.27-3.17,1.91-5.1,5.78-9.13,6.76-3.45,4.2-8.52,6.31-12.57,9.75-.38.32-.9.54-1.15.93-2.25,3.56-6.06,5.48-8.85,8.46-.77.81-1.8,1.49-2.27,2.45-1.55,3.19-4.39,4.65-7.41,5.87-3.5,1.41-6.29,3.69-8.49,6.71-.79,1.08-1.96,1.85-3.28,2.08-3.13.55-5.43,2.75-8.17,4.04-3.71,1.74-6.73,4.64-10.59,6.07-.95.35-1.78.91-2.32,1.8-.62,1.02-1.53,1.59-2.67,1.86-.99.24-1.95.71-2.48,1.56-1.51,2.42-3.85,3.21-6.42,4.01-3.41,1.05-6.78,2.4-8.87,5.6-.65.99-2.08,2.27-3.09,2.9-4.19,2.62-8.32,5.33-12.51,7.94-1.73,1.08-2.79,2.81-4.27,4.14-1.46,1.32-3.02,2-4.98,2.2-4.28.45-7.96,1.67-10.8,5.58-1.94,2.67-5.17,4.58-8.13,6.3-2.08,1.21-3.8,3.16-6.52,3.37-1.22.09-1.55,1.83-2.48,2.66-2.1,1.87-4.43,3.38-5.69,6.21-.76,1.7-3.01,2.75-5.05,2.77-3.29.03-5.93,2.61-9.35,2.09-.99-.15-1.76.88-2.13,1.85-.86,2.24-2.26,3.51-4.83,3.08-.44-.08-1.24.03-1.38.3-1.51,3.06-5.53,4.4-5.77,8.34-.03.44-.3,1.15-.62,1.25-2.26.73-3.16,2.27-3.31,4.49-.06.88-.62,1.65-1.4,2.06-2.21,1.15-4.15,2.76-5.83,4.48-4.28,4.37-9.75,4.45-15.18,4.68-2.59.11-4-1.9-3-4.18.93-2.12.76-4.06.63-6.33-.31-5.59-1-11.37,1.87-16.7,1.81-3.37,2.17-7.33,4.31-10.62.86-1.32,1.3-2.9,2.37-4.17.78-.93,1.51-2.08,1.75-3.24.7-3.37,2.74-6.08,4.13-9.11,2.51-5.51,5.65-10.73,7.59-16.5.32-.96.51-1.88.46-2.9-.13-2.62-.03-5.13,2.1-7.19.86-.83,1.21-2.18.86-3.49-.48-1.82.44-2.97,1.94-3.54,3.62-1.39,6.39-4.18,9.92-5.78,2.21-1,4.06-2.82,6-4.37,4.75-3.8,10.3-6.38,15.12-10.06,4.72-3.6,9.46-7.14,13.78-11.25,3.58-3.41,7.62-6.33,11.56-9.34,5.57-4.25,11.37-8.22,16.82-12.61,3.94-3.18,7.87-6.39,11.74-9.66,4.17-3.53,8.77-6.45,13.04-9.82,1.55-1.22,3.14-2.41,4.71-3.61,5.8-4.45,11.6-8.91,17.41-13.34,2.15-1.64,4.04-3.35,3.47-6.47-.1-.53.34-1.17.55-1.75.76-2.1.63-3.94-1.57-5.11-1.58-.84-2.25-2.32-1.53-3.75-12.6-29.75-81.1-4.07-81.1-4.07-3.38,5.75-6.71,11.55-10.34,17.14-.97,1.49-1.31,3.14-2.14,4.65-2.64,4.8-6.85,8.43-9.43,13.24-.54,1.01-.94,1.99-1.2,3.08-.78,3.32-2.55,5.88-5.76,7.3-1.37.61-2.23,1.58-2.31,3.19-.1,1.99-1.19,3.78-2.82,4.93-.86.6-1.28,1.46-1.7,2.38-.41.89-.89,1.84-1.58,2.5-3.34,3.21-6.16,6.95-8.45,10.83-3.1,5.24-8.58,8.72-10.48,14.73-2.88,2.36-4.26,6.04-7.29,8.29-.78.58-1.38,1.42-2.04,2.16-1.08,1.22-2.16,2.62-3.69,3.07-4.36,1.28-7.01,4.9-10.56,7.28-1.31.88-1.99,2.05-2.16,3.7-.23,2.28-1.1,4.15-3.57,5.1-1.46.56-2.61,1.8-3.37,3.35-.97,2-1.94,4.06-4.4,4.75-.81.23-.89,1.1-1.07,1.83-.82,3.46-2.59,6.15-6.09,7.43-1.02.37-1.72,1.11-1.61,2.25.2,2.1-.94,3.31-2.66,4.03-1.79.75-2.29,2.03-2.22,3.85.08,1.88-.95,3.12-2.47,4.28-2.41,1.84-4.54,4.02-7.13,5.68-1.95,1.25-2.62,3.58-3.73,5.5-.74,1.27-1.33,2.1-3.17,1.72-2.32-.48-3.59.49-4.58,2.77-.59,1.38-1.14,2.78-2.16,3.89-1.39,1.51-2.79,1.75-4.16.28-1.33-1.43-2.87-1.89-4.63-1.99-1.89-.1-2.7-1.05-2.51-2.89.13-1.26.11-2.47-.6-3.6-.92-1.47-.92-3.05-.38-4.66.32-.94.61-1.89.02-2.94-2.85-.05-5.14,1.1-7.18,3.09-2.94,2.88-6.32,5.21-9.9,7.23-1.76.99-3.39,2.1-4.46,3.86-.85,1.38-1.97,2.21-3.66,2.11-2.32-.14-3.87,1.38-4.75,3.04-1.07,2.04-2.55,3.08-4.52,4.05-5.73,2.82-11.23,6.1-17.01,8.81-3.9,1.83-7.7,4.07-12.11,4.7-1.25.18-2.21,1.1-3.29,1.7-2.95,1.65-5.23,1.14-7.42-1.56-.38-.47-.8-.98-1.31-1.26-1.84-1.01-1.83-2.47-1.15-4.15,1.32-3.23,1.29-6.37.12-9.74-1.16-3.35.48-6.58,1.84-9.58.73-1.61,1.46-3.11,1.53-4.89.07-1.73.97-3.17,2.18-4.19,3.49-2.95,6.67-6.2,10.37-8.96,3.03-2.26,6.36-4.32,8.84-7.3,1.22-1.47,2.85-2.4,4.3-3.55,3.51-2.79,6.7-5.86,9.45-9.41,1.43-1.84,3.69-2.88,4.86-4.99.11-.2.38-.42.6-.47,6.7-1.65,10.72-7.29,16.01-10.99,6.99-4.88,13.88-9.93,20.87-14.83s18.61-13.72,25.52-19.12c3.97-3.1,8.09-6.01,12.41-8.56,3.98-2.36,7.1-5.36,9.68-9.07,5.09-7.34,10.88-14.15,16.08-21.4,7.98-11.09,16.94-21.4,25.42-32.09-79.21,58.31-192.05-4.49-192.05-4.49-5.16,2.68-10.73,4.58-15.56,7.87-2.96,2.02-5.6,4.51-8.57,6.53-3.37,2.29-6.69,4.67-10.11,6.87-3.43,2.21-6.52,4.83-9.79,7.23-2.29,1.68-4.18,3.89-6.35,5.76-2.32,2-3.07,5.07-5.2,7.21-4.5,4.54-7.3,10.28-10.67,15.61-1.24,1.96-2.89,3.36-4.63,4.76-1.59,1.28-3.34.56-5,.34-.85-.11-1.03-1.02-.95-1.79.17-1.67,0-3.2-1.1-4.57-.89-1.11-.4-2.44-.18-3.6.48-2.5.3-4.73-.7-7.2-1.28-3.19-1.31-6.59-.28-10.14,1.41-4.87,2.79-9.68,4.95-14.32,2.17-4.66,5.04-8.85,7.88-13.04,6.56-9.7,14.6-18.15,23.01-26.26,7.35-7.08,15.58-13.08,23.75-19.14,6.2-4.6,26.68-10.58,19.29-12.72-19.86-5.75-2.19-168.87-2.19-168.87-.97,4.29-2.16,8.6-3.32,12.88-2.55,9.47-4.35,19.14-6.94,28.58-2.71,9.9-4.97,19.93-8.58,29.62-2,5.37-3.75,10.94-5.12,16.59-.96,3.95-2.78,7.69-4.21,11.53-3.41,9.18-6.83,18.36-10.23,27.55-2.25,6.07-5.39,11.72-8.4,17.43-2.79,5.27-5.86,10.37-8.17,15.89-1.77,4.23-4.8,7.81-6.85,11.94-3.41,6.88-7.88,13.16-11.53,19.93-2.51,4.66-5.85,8.9-8.97,13.22-4.68,6.47-9.46,12.88-14.21,19.3s-12.2,16.06-17.29,21.78c-2.32,2.61-3.87,5.72-5.79,8.57-1.34,1.98-2.73,3.75-4.51,5.34-1.81,1.61-3.38,3.38-4.73,5.58-1.89,3.1-4.57,6.09-7.62,8.02-6.14,3.89-11.05,9.22-16.88,13.42-2.69,1.93-5.38,3.85-8.01,5.88-3.74,2.89-6.83,6.49-10.8,9.11-7.03,4.64-13.3,10.31-20.57,14.69-4.1,2.47-7.82,5.66-12.01,8.09-.41.24-.76.64-1.05,1.04-.23.32-.15.73.17.99.17.13.47.23.66.17.34-.11.67-.32.96-.53,5.07-3.75,10.64-6.78,15.49-10.83,1.1-.92,2.35-1.28,3.93-1.74.04,1.76-1.15,2.36-2.11,2.92-4.18,2.45-7.38,6.27-11.81,8.4-1.2.58-2.42,1.57-1.12,3.25.91,1.17-.03,1.93-.81,2.44-3.33,2.15-6.32,4.74-9.87,6.64-5.32,2.86-10.68,5.73-15.62,9.26-1.52,1.09-3.05,2.16-4.79,2.86-1.06.42-1.94,1.01-2.47,2.34,4.08,1.22,6.15-3.67,9.77-3.11.34,1.25-.42,1.62-1.03,1.98-2.14,1.26-4.2,2.79-6.5,3.61-4.23,1.51-8.31,3.33-12.28,5.35-3.88,1.98-8.1,2.33-12.24,2.91-3.06.43-6.37.83-9.27.08-3.02-.77-6.43.01-9.13-2.1-.26-.2-.71-.28-1.06-.24-4.17.51-7.3-2.12-10.74-3.66-3.63-1.62-6.93-3.82-9.41-7.09-.66-.87-1.58-1.6-2.5-2.22-2.26-1.52-4.79-2.79-4.34-6.2.03-.22-.1-.5-.23-.7-5.39-8.13-5.96-17.79-8.46-26.84-.4-1.44-.6-2.93-1.42-4.2-2.85-4.37-3.48-9.35-4.48-14.34-1.4-6.97-1.71-14.02-2.49-21.02-.62-5.55-.3-11.14,1-16.66.76-3.26,1.04-6.62,1.63-9.92,1.16-6.49,2.99-12.8,5.25-18.99.56-1.53,1.15-3.01,1.04-4.68-.05-.75.13-1.48.57-2.13,4.01-5.89,6.26-12.65,9.27-19.02,2.6-5.52,5.39-10.88,8.58-16.08,3.83-6.23,7.41-12.61,10.76-19.12,1.4-2.72,2.68-5.6,4.95-7.81.35-.34.74-.77.84-1.22.84-3.79,3.93-6.2,5.78-9.38,1.09-1.88,2.5-3.56,4.78-4.47,1.78-.71,3.37-2.22,4.18-4.03,1.17-2.61,3.03-4.73,5.25-6.14,3.6-2.27,5.47-5.74,7.25-9.2,3.35-6.52,7.58-12.48,11.41-18.69,1.15-1.87,2.9-3.36,3.53-5.59.13-.44.63-.69,1.23-.46,2.04.77,2.15.84,3.22-.55,2.34-3.04,4.57-6.18,6.84-9.28.42-.57.74-1.5,1.66-.86.62.43.23,1.16-.05,1.69-.34.66-.71,1.35-1.23,1.86-2.67,2.67-3.16,6.22-3.85,9.65-.29,1.41-1.2,2.43-2.03,4.53,3.53-2.73,6.55-4.87,9.36-7.27,8.07-6.87,17.04-12.43,25.96-18.07,1.36-.86,2.77-1.67,4.07-2.62,5.01-3.65,10.75-5.63,16.58-7.42.47-.14,1.02-.27,1.47-.16,3.64.89,7.26,1.32,10.99.45,1.1-.26,3.03,3.16,2.18,3.94-1.17,1.08-.94,3.19-2.86,3.61-.33.07-.84.43-.84.66.03,2.83-2.56,3.35-4.17,4.64-1.35,1.08-2.45,2.02-3.27,3.74-1.38,2.88-3.64,5.2-6.69,6.74-6.78,3.42-13.5,7.18-19.16,12.14-6.36,5.57-13.58,10.02-19.63,15.91-4.88,4.75-9.7,9.57-14.54,14.36-1.94,1.92-3.9,3.83-5.79,5.8-7.22,7.54-13.48,15.89-20.01,24-1.93,2.4-2.84,5.23-3.4,8.17-.31,1.61-.82,3.11-1.39,4.63-2.06,5.54-4.11,10.99-3.12,17.22,1.01,6.37,1.59,12.79,4.4,18.72,1.19,2.52,2.89,4.58,4.96,6.44,1.92,1.72,4.02,3.22,5.75,5.2,1.26,1.44,3.02,2.54,5.13,2.77.97.11,2.03.33,2.83.84,2.12,1.34,4.37,1.53,6.8,1.43,1.8-.07,3.66-.34,5.4.46.94.43,2.5.72,3.52.54,4.56-.83,9.12-1.67,13.68-2.51.12-.02.28.01.37-.05,3.94-3,9.08-2.66,13.34-4.97,7.74-4.21,15.78-7.87,23.52-12.06,3.58-1.94,6.71-4.69,10.14-6.94,3.6-2.35,7.04-4.91,10.83-7.01,3.78-2.1,7.28-4.73,10.76-7.32,8.48-6.29,16.8-12.78,25.34-18.99,3.29-2.39,6-5.66,10.04-6.99,4.98-5.6,11.01-10.37,13.44-17.93,1.93-6.01,5.2-11.53,6.83-17.64.89-3.34,1.61-6.73,2.86-9.97.41-1.07.81-1.9,2.3-1.97,2.42-.11,4.29-1.97,3.92-4.25-.37-2.28.55-3.96,1.64-5.51,2.03-2.86,3.14-6.21,5.2-9.01.76-1.04.38-3.37,3.01-2.72.4.1,1.62-2.05,2.06-3.3,3.94-11.11,8.65-21.91,12.53-33.05,4.19-12.03,5.99-24.57,8.74-36.9,1.22-5.48,3.17-10.69,4.9-16,2.14-6.61,4.87-13.07,6.24-19.88,1.53-7.61,4.26-14.76,7.31-21.81,3.89-9,6.72-18.41,10.61-27.4,2.12-4.9,5.15-9.34,8-13.84,4.04-6.38,8.13-12.75,12.73-18.72,2.17-2.82,3.66-6.42,7.19-8.14,1.16-.56,1.53-1.91,2.13-2.99.6-1.07.97-2.27,1.91-3.17,3.05-2.9,5.5-6.39,8.49-9.32,7.35-7.21,14.82-14.31,22.72-20.94,4-3.35,7.88-6.82,12.27-9.68,6.65-4.34,13.53-8.3,20.39-12.29,6.13-3.56,12.89-5.72,19.29-8.66,9.38-4.31,19.39-6.82,29.01-10.45.35-.13.7-.32,1.06-.34,1.4-.06,3.28-1.32,4.05.38.69,1.54,1.28,3.57-.08,5.27-.95,1.19-1.63,2.28-1.08,4,.34,1.06-.56,2.05-1.63,2.67-4.21,2.44-8.09,5.5-11.25,9.01-2.3,2.56-6.27,3.75-6.95,7.73-2.4,1.86-3.64,5.03-6.99,5.87-1.22.31-2.26,1.33-3.35,2.01.54,1.08,1.6-.13,2.12,1.12-3.14,1.37-5.79,3.53-8.32,5.84-.82.75-1.65,1.53-2.31,2.41-.81,1.08-.9,2.33-.04,3.46.81,1.05,1.84.94,3.03.58,12.73-3.86,25.79-5.95,39.01-7.09,1.14-.1,2.27-.35,3.36-.7,10.04-3.3,20.41-4.01,30.88-3.9.62,0,1.25.12,1.86.06,7.11-.71,13.65,1.47,20.17,3.84,1.59.58,1.76,1.21,1.14,2.75-1.02,2.53-3.3,3.93-4.94,5.87-.71.85-1.51,1.69-1.93,2.64-1.15,2.61-3.29,4.52-4.56,7.05-1.04,2.07-2.47,4.04-5.04,4.61-.35.08-.81.23-.99.49-2.85,4.32-7.06,2.96-10.98,2.59-5.73-.55-11.42.01-17.12.34-2.76.16-5.24,1.5-7.77,2.47-11.05,4.24-21.18,10.16-30.97,16.8-4.82,3.27-9.74,6.41-14.5,9.76-6.64,4.66-12.32,10.43-18.17,15.99l-2.97,2.82Zm-20.66-16.87c-3.04,1.53-6.08,3.09-9.22,4.38-1.91.78-3.38,2.04-4.9,3.3m632.3,2.12c-.87-.69-1.93-1.14-2.83-1.79-.94-.69-2.18-1.15-2.6-2.68,1.79-.34,2.94,1.21,4.46.95.61-.1,1.3-.07,1.49-.84.12-.52-.13-1.07-.55-1.29-2.43-1.24-3.8-4.53-7.33-3.72-.61.14-1.37-.46-2.07-.69-4.6-1.5-8.77-4.05-13.33-5.6-8.95-3.04-18.31-4.48-27.5-6.55-3.27-.73-6.57-1.3-9.95-1.4-2.9-.09-5.44-1.72-8.26-2.18-7.4-1.21-14.57-3.04-20.83-7.42-.88-.62-1.81-1.12-3.04-1,.59,1.43,1.9,1.77,2.83,2.54,1.04.86,2.29,1.58,2.36,3.17l.08-.06c-2.43-.68-4.4-2.27-6.65-3.31-1.35-.62-2.38-.15-3.3.88-.94,1.04-.67,2.03-.01,3.05,1.02,1.59,2.39,2.82,3.8,4.06,3.01,2.65,6.8,3.93,10.15,6.04-2.73-.14-5.16-1.23-7.58-2.34-2.84-1.3-5.36-3.14-8.06-4.67-3-1.7-4.24-1.35-6.31,1.41-.89,1.19-1.61,2.53-2.64,3.59m135.02,255.99c1.7.25,2.82-.9,3.67-2.15.94-1.38,2.4-2.11,3.5-3.19,2.51-2.46,5.86-4.21,7.16-7.83.56-1.57,1.47-2.98,3.61-2.18.8.3,1.4-.13,2-.65,1.96-1.7,4.26-3.07,5.66-5.32,3.11-4.99,8.41-7.48,12.69-11.12,3.47-2.95,6.93-5.94,10.42-8.87,2.27-1.91,3.73-4.7,5.99-6.47,3.29-2.57,6.42-5.48,10.44-7.09,1.45-.58,2.83-1.61,3.68-3.06.78-1.33,3.12-2.1,2.98-3.1-.33-2.46,2.02-1.97,2.59-3.08,1.45-2.81,4.16-4.64,5.56-7.44,1.21-2.43,2.06-5.06,4.99-6.15.7-.26,1.17-1.25,1.67-1.96,1.34-1.94,2.65-3.89,3.93-5.87.54-.83,1.47-1.83,1.33-2.59-.55-2.95,1.32-4.59,2.96-6.43,1.67-1.87,1.78-2.33-.03-3.99-1.86-1.71-2.64-3.58-2.89-6.14-.48-4.89-2.59-6.7-7.4-7.92-5.22-1.32-10.68-.37-15.86-1.9-2.42-.44-4.53,1.31-6.97.96-2.09-.3-4.2,0-6.3.39-4.15.74-8.33,1.32-12.5,1.93-1.6.24-3.41.07-4.65,1.13-1.76,1.5-3.89,1.57-5.88,1.9-2.5.42-4.77,1.26-7.01,2.34-1,.49-1.98,1.08-3.03,1.44,0,0-50.72,48.79-22.31,104.4Zm-127.82,57.12c-.72,1.98-1.63,3.9-2.5,5.82-.42.92-.59,1.85-.62,2.87-.09,3.69-1.67,6.95-3.56,9.95-1.03,1.64-1.76,3.25-2.09,5.08-.42,2.31.3,3.34,2.66,3.36,1.76.01,3.45.26,5.17.53,2.75.43,5.65,1.51,7.85-1.36.13-.17.45-.23.69-.26,3.92-.4,6.87-2.64,9.67-5.13.88-.78,1.87-1.25,3.02-1.28,4.47-.11,6.7-3.23,8.64-6.57,1.26-2.18,1.12-2.26,3.45-1.17,2.75,1.29,3.28,1.14,5.21-1.36.45-.58.92-1.2,1.51-1.62,4.46-3.19,9.38-5.7,13.49-9.43-7.84-19.65-52.59.57-52.59.57Zm188.64-178.06c-1.22.03-2.85-.09-4.42.17-1.63.27-2.13,1.67-1.34,3.12.65,1.19,1.67,1.78,3.02,1.84,2.47.12,4.94.22,7.4-.25,3.33-.64,3.79-1.38,2.64-4.41-.39-1.04-.99-1.53-1.91-.86-1.61,1.19-3.3.75-5.39.39Zm-215.68,233.05c-1.59.23-1.74,1.62-1.84,2.97-.06.88.04,1.78,1.29,1.76,1.26-.02,3.87-1.51,3.97-2.24.12-.92-1.9-2.48-3.41-2.49Zm92.53-374.53c2.75,1.17,5.65,1.68,8.6,1.95-2.69-1.43-5.67-1.56-8.6-1.95Zm119.88,278.4c-.63.38-1.37.78-2.06,1.26-.5.35-1.06.98-.51,1.47,1.07.95,2.02.17,2.81-.62.49-.49,1.08-1.06.54-1.87-.1-.15-.42-.14-.79-.25Zm-52.23-118.15c1.41-.16,2.43-.38,2.85-1.58.05-.13-.19-.51-.34-.54-1.46-.3-2.24.38-2.51,2.12Zm11.58-6.3c-1.95.02-3.22.17-4.12,1.82,1.95.58,2.86-.32,4.12-1.82Zm-109.27-222.3c.04-.4-.14-.7-.51-.77-.18-.03-.5.1-.58.25-.2.34-.07.71.29.87.35.17.66.03.81-.36Zm-116.98,417.71c.1-.29,0-.47-.28-.51-.1-.01-.29.06-.3.12-.02.2-.07.49.04.6.19.18.42.06.54-.21Z"/></g></svg>