<?xml version="1.0" encoding="UTF-8"?><svg id="Vrstva_2" xmlns="http://www.w3.org/2000/svg" viewBox="0 0 1000.49 675.3"><defs><style>.cls-1{fill:none;stroke:#fff;stroke-miterlimit:10;stroke-width:3px;}</style></defs><g id="Vrstva_1-2"><path class="cls-1" d="m827.49,224.87c-.87-.69-1.93-1.14-2.83-1.79-.94-.69-2.18-1.15-2.6-2.68,1.79-.34,2.94,1.21,4.46.95.61-.1,1.3-.07,1.49-.84.12-.52-.13-1.07-.55-1.29-2.43-1.24-3.8-4.53-7.33-3.72-.61.14-1.37-.46-2.07-.69-4.6-1.5-8.77-4.05-13.33-5.6-8.95-3.04-18.31-4.48-27.5-6.55-3.27-.73-6.57-1.3-9.95-1.4-2.9-.09-5.44-1.72-8.26-2.18-7.4-1.21-14.57-3.04-20.83-7.42-.88-.62-1.81-1.12-3.04-1,.59,1.43,1.9,1.77,2.83,2.54,1.04.86,2.29,1.58,2.36,3.17l.08-.06c-2.43-.68-4.4-2.27-6.65-3.31-1.35-.62-2.38-.15-3.3.88-.94,1.04-.67,2.03-.01,3.05,1.02,1.59,2.39,2.82,3.8,4.06,3.01,2.65,6.8,3.93,10.15,6.04-2.73-.14-5.16-1.23-7.58-2.34-2.84-1.3-5.36-3.14-8.06-4.67-3-1.7-4.24-1.35-6.31,1.41-.89,1.19-1.61,2.53-2.64,3.59"/><path class="cls-1" d="m854.81,461.01c1.7.25,2.82-.9,3.67-2.15.94-1.38,2.4-2.11,3.5-3.19,2.51-2.46,5.86-4.21,7.16-7.83.56-1.57,1.47-2.98,3.61-2.18.8.3,1.4-.13,2-.65,1.96-1.7,4.26-3.07,5.66-5.32,3.11-4.99,8.41-7.48,12.69-11.12,3.47-2.95,6.93-5.94,10.42-8.87,2.27-1.91,3.73-4.7,5.99-6.47,3.29-2.57,6.42-5.48,10.44-7.09,1.45-.58,2.83-1.61,3.68-3.06.78-1.33,3.12-2.1,2.98-3.1-.33-2.46,2.02-1.97,2.59-3.08,1.45-2.81,4.16-4.64,5.56-7.44,1.21-2.43,2.06-5.06,4.99-6.15.7-.26,1.17-1.25,1.67-1.96,1.34-1.94,2.65-3.89,3.93-5.87.54-.83,1.47-1.83,1.33-2.59-.55-2.95,1.32-4.59,2.96-6.43,1.67-1.87,1.78-2.33-.03-3.99-1.86-1.71-2.64-3.58-2.89-6.14-.48-4.89-2.59-6.7-7.4-7.92-5.22-1.32-10.68-.37-15.86-1.9-2.42-.44-4.53,1.31-6.97.96-2.09-.3-4.2,0-6.3.39-4.15.74-8.33,1.32-12.5,1.93-1.6.24-3.41.07-4.65,1.13-1.76,1.5-3.89,1.57-5.88,1.9-2.5.42-4.77,1.26-7.01,2.34-1,.49-1.98,1.08-3.03,1.44,0,0-50.72,48.79-22.31,104.4Z"/><path class="cls-1" d="m726.99,518.13c-.72,1.98-1.63,3.9-2.5,5.82-.42.92-.59,1.85-.62,2.87-.09,3.69-1.67,6.95-3.56,9.95-1.03,1.64-1.76,3.25-2.09,5.08-.42,2.31.3,3.34,2.66,3.36,1.76.01,3.45.26,5.17.53,2.75.43,5.65,1.51,7.85-1.36.13-.17.45-.23.69-.26,3.92-.4,6.87-2.64,9.67-5.13.88-.78,1.87-1.25,3.02-1.28,4.47-.11,6.7-3.23,8.64-6.57,1.26-2.18,1.12-2.26,3.45-1.17,2.75,1.29,3.28,1.14,5.21-1.36.45-.58.92-1.2,1.51-1.62,4.46-3.19,9.38-5.7,13.49-9.43-7.84-19.65-52.59.57-52.59.57Z"/><path class="cls-1" d="m915.63,340.07c-1.22.03-2.85-.09-4.42.17-1.63.27-2.13,1.67-1.34,3.12.65,1.19,1.67,1.78,3.02,1.84,2.47.12,4.94.22,7.4-.25,3.33-.64,3.79-1.38,2.64-4.41-.39-1.04-.99-1.53-1.91-.86-1.61,1.19-3.3.75-5.39.39Z"/><path class="cls-1" d="m699.95,573.12c-1.59.23-1.74,1.62-1.84,2.97-.06.88.04,1.78,1.29,1.76,1.26-.02,3.87-1.51,3.97-2.24.12-.92-1.9-2.48-3.41-2.49Z"/><path class="cls-1" d="m792.48,198.59c2.75,1.17,5.65,1.68,8.6,1.95-2.69-1.43-5.67-1.56-8.6-1.95Z"/><path class="cls-1" d="m912.36,476.99c-.63.38-1.37.78-2.06,1.26-.5.35-1.06.98-.51,1.47,1.07.95,2.02.17,2.81-.62.49-.49,1.08-1.06.54-1.87-.1-.15-.42-.14-.79-.25Z"/><path class="cls-1" d="m860.13,358.85c1.41-.16,2.43-.38,2.85-1.58.05-.13-.19-.51-.34-.54-1.46-.3-2.24.38-2.51,2.12Z"/><path class="cls-1" d="m871.7,352.55c-1.95.02-3.22.17-4.12,1.82,1.95.58,2.86-.32,4.12-1.82Z"/><path class="cls-1" d="m762.43,130.25c.04-.4-.14-.7-.51-.77-.18-.03-.5.1-.58.25-.2.34-.07.71.29.87.35.17.66.03.81-.36Z"/><path class="cls-1" d="m645.45,547.96c.1-.29,0-.47-.28-.51-.1-.01-.29.06-.3.12-.02.2-.07.49.04.6.19.18.42.06.54-.21Z"/><path class="cls-1" d="m518.62,586.75c-9.46,46.27-35.97,4.05-35.97,4.05-.25-.39-.77-.61-1.15-.93-4.04-3.44-9.12-5.54-12.57-9.75-4.03-.98-5.96-4.86-9.13-6.76-5.16-3.1-7.43-8.59-11.76-12.27-.5-.42-.56-1.35-.84-2.04-1.64-3.97-2.8-8.47-6.55-10.87-3.2-2.05-2.72-5.28-3.9-7.95-.26-.59.16-1.22.85-1.44.59-.19,1.23-.24,1.8-.46,2.01-.79,2.26-2.13.62-3.62-.82-.75-1.77-1.37-2.72-1.97-2.93-1.85-5.12-4.28-6.23-7.62-.62-1.85-1.99-3.08-3.57-4.17-1.61-1.13-3.46-1.99-4.52-3.8,0,0-72.86-14.78-86.47,4.68.39.26.86.72.91,1.14.28,2.38,2.21,3.5,3.66,4.96.96.97,1.52,1.76,1.61,3.39.13,2.53,1.51,5.32,4.07,6.09,4.17,1.24,7.27,3.82,9.92,6.88,1.98,2.29,3.56,5.1,2.89,8.49-.4,2,.51,3.49,2.2,4.3,1.74.83,2.59,2.14,3.23,3.84,1.01,2.69,2.32,5.2,4.74,6.99,1.02.75,1.68,1.86,1.79,3.16.16,1.83,1.08,3.28,2.17,4.66.6.77,1.45,1.46,1.07,2.62-.61,1.88.27,3.63.37,5.39.18,3.3,1.06,6.76.06,9.96-.91,2.92-.41,5.71.27,8.31.92,3.55.95,7.1,1.43,10.64.51,3.77-1.29,7.08-1.14,10.75.07,1.72-.72,3.57-.84,5.46-.08,1.42-.38,2.82-.95,4.13-1.31,3.03-2.41,6.09-.45,9.27.45.73.73,1.75.28,2.51-1.1,1.85-1.08,3.77-.73,5.77.14.81-.15,1.49-.77,1.98-1.74,1.39-.93,2.53.3,3.66.93.85,2.03,1.63,1.26,3.65-.67,1.79-2.23,3.08-4.07,3.61-.37.11-.69.28-.91.61-1.89,2.8-4.88,2.06-7.45,2.34-2.84.31-4.79-1.7-5.04-4.64-.25-2.9-.82-5.63-2.96-7.84-.58-.6-1.1-1.45-1.24-2.26-.42-2.42-1.86-4.03-3.78-5.3-1.56-1.04-2.22-2.34-1.34-4.12.77-1.55.1-2.4-1.09-3.45-2.57-2.27-5.35-4.33-6.62-7.85-.52-1.43-1.59-2.7-1.9-4.34-.33-1.81-1.45-3.13-3.09-3.99-.44-.23-.89-.45-1.32-.69-8.15-4.48-6.87-4.01-8.45-11.48-.4-1.9-.92-3.67-2.36-4.93-3.02-2.66-5.49-5.63-6.5-9.63-.09-.34-.36-.66-.61-.93-3.23-3.36-6.27-6.94-10.14-9.63-1.14-.79-2.64-.43-3.21.83-.64,1.44-.75,3.02-.42,4.47.97,4.19-.28,7.71-2.45,11.24-1.37,2.23-1.7,5-.75,7.54.68,1.82.64,3.49.29,5.29-.29,1.48-.59,3.93-.74,5.43-.3,3.16-.47,6.33-.88,9.48-.31,2.34-.73,4.6.55,6.81.58,1,.67,2.15-.15,3.15-.53.64-.57,1.3-.43,2.09.63,3.44-.98,7.21,1.6,10.39.4.5.46,1.46.34,2.16-.26,1.55-.37,3.11-2.49,3.67-1.69.45-1.86,1.68-.84,3.15.65.94,2.05,1.42,1.96,2.9-1.35.53-2.27-.31-3.29-.64-3.28-1.06-4.2-.56-4.81,2.93-.23,1.34-.15,2.73-.36,4.08-.32,2.08-3.28,4.23-4.95,3.31-2.39-1.32-4.95-1.58-7.5-2.01-2.28-.38-3.67-1.63-3.79-3.92-.16-2.98-1.72-5.13-3.78-7.02-1.31-1.2-2.11-2.67-2.97-4.2-1.27-2.27-2.14-5.19-5.56-5.39-.8-.05-1.01-.9-1.38-1.57-2.47-4.48-5.17-8.73-10.31-10.68-1.53-.58-2.7-1.61-2.94-3.51-.23-1.84-1.53-3.14-3.15-3.92-1.48-.71-2.82-1.56-4.01-2.67-.65-.6-1.44-1.17-2.34-.95-2.15.52-3.71-.74-5.03-1.91-2.81-2.48-5.9-3.97-9.67-4.07-.56-.02-1.36-.39-1.77-.77-1.63-1.48-3.67-1.89-5.68-2.44-1.31-.36-2.75-.55-3.78-1.5-1.67-1.55-3.76-2.52-6.02-2.82-1.29-.17-2.25-.91-2.92-2.01-2.05-3.34-4.92-5.84-8.12-8.05-1.64-1.13-2.84-2.72-4.05-4.32-2.5-3.31-3.67-7.71-7.8-9.74-.48-.24-.78-.95-1.06-1.5-.75-1.49-1.81-2.93-3.19-3.57-4.89-2.26-7.8-6.8-11.98-9.84-.9-.66-1.82-1.36-2.84-1.76-3.13-1.2-4.69-3.59-5.19-6.83-.3-1.96-1.22-3.79-2.52-5.28-2.34-2.69-5.28-4.86-6.98-8.12-.26-.49-.92-.86-1.47-1.11-3.09-1.38-5.07-3.92-6.96-6.56-1.3-1.81-2.48-3.78-4.08-5.3-3.71-3.52-7.12-7.23-9.48-11.82-.27-.53-.68-1.14-1.19-1.39-3.16-1.54-4.74-4.7-7.17-6.98-.98-.91-1.39-2.49-2.69-3.03-5.06-2.11-6.45-7.67-10.37-10.84-.25-.2-.47-.69-.42-1,.39-2.28-1.35-3.33-2.63-4.61-3.05-3.04-6.2-5.96-9.16-9.13-3.32-3.56-5.66-8.22-10.21-10.62-.3-.16-.57-.52-.71-.85-1.16-2.74-3.45-4.51-5.47-6.51-.7-.7-1.33-1.48-1.89-2.29-.36-.52-.49-1.19.04-1.71.4-.41.91-.27,1.36-.02.43.24.84.54,1.29.74.61.28,1.25.25,1.69-.3.48-.59.14-1.18-.22-1.69-.44-.6-.84-1.31-1.43-1.7-1.96-1.28-3.12-3.15-4.1-5.19-1.23-2.54-3.38-4.25-5.54-5.92-.4-.31-.93-.46-1.39-.15-.48.32-.52.88-.25,1.32,1.18,1.87,1.38,4.29,3.35,5.73.62.45,1.4,1.12.64,2.07-.64.09-1.11-.17-1.39-.56-2.67-3.59-6.24-6.37-8.82-10.06-1.63-2.33-3.22-4.71-4.96-6.95-3.33-4.3-6.63-8.57-8.54-13.73-.24-.64-.77-1.61-1.17-2.16-2.62-3.57-3.59-7.85-5.03-11.91-.5-1.41-.75-2.87-1.92-3.91-.86-.77-1.35-1.76-1.8-2.8-1.17-2.65-1.34-5.81-4.17-7.63-.55-.35-.59-1.58-.77-2.42-1.05-4.93-3.74-8.9-6.67-12.92-1.52-2.08-2.29-4.71-4.69-6.17-.16-.1-.24-.45-.25-.68-.06-2.12-1.62-3.31-2.96-4.55-.94-.87-1.91-1.55-1.71-3.04.09-.66-.44-1.11-.84-1.59-3.49-4.24-6.42-8.76-7.22-14.35-.06-.45-.21-.89-.51-1.24-1.39-1.67-1.72-3.71-1.98-5.73-.21-1.62-.57-3.16-1.14-4.69-1.91-5.13-1.6-6.21,2.51-9.99.46-.42.93-.83,1.36-1.27.52-.53.77-1.57.62-2.29-.46-2.21-.09-4.6-1.42-6.61-.58-.87-.83-1.84-.71-2.84.33-2.84.38-5.66.09-8.53-.14-1.43.31-2.96.71-4.38,1.88-6.53,4.88-12.45,9.57-17.44.67-.72,1.69-1.51,1.48-2.49-.56-2.61,1.31-3.39,2.88-4.61,2.14-1.65,4.57-2.47,7.12-3.1,3.37-.83,6.8-1.5,10.12-2.5,3.46-1.04,7.21.61,10.52-1.33,8.57-.33,17.12-.69,25.64.87,3.61.66,7.29.91,10.87,1.33.47-4.48,1.43-8.56.94-12.72,2.43-7.13.17-14.1-1.47-20.83-1.54-6.31-3.8-12.51-5.54-18.8-2.35-8.46-3.98-17.1-5.41-25.79-1.42-8.68-2.88-17.36-3.94-26.09-.59-4.81-1.64-9.6-1.71-14.41-.1-6.26-1.17-12.36-2.04-18.49-.94-6.63-1.83-13.21-1.23-19.98.66-7.53-.07-15.11-1.82-22.47-2.49-10.51-4.95-20.94-5.17-31.87-.16-8.41,1.12-16.53,2.96-24.63.34-1.51,1.48-2.75.04-4.33-.54-.6.38-1.29.92-1.81.79-.75,2.05-1.06,2.34-2.29.85-3.59,2.26-7.13,1.08-10.93-.27-.86-.36-1.75.38-2.44,1.62-1.52,2.79-3.45,4.83-4.59,2.81-1.57,5.78-2.9,8.26-5.03.6-.51,1.41-.84,2.08-.53,3.39,1.58,6.81.85,10.24.31.65-.1,1.35-.07,1.61.59,1.59,4.05,3.17,8.1,1,12.5-.53,1.07-1.47,2.31.38,3.49,2.26,1.45,2.41,2.59.54,4.38-3.04,2.9-2.69,6.66-3.09,10.25-.11.97.08,1.97.15,2.96.04.53.3.91.84,1.09,2.06.7,6.02-.3,6.92-2.3,1.26-2.8,3.5-4.76,5.18-7.18,4.72-6.79,11.16-11.84,17.46-17.03,5-4.12,11.25-6.32,16.18-10.56,1.39-1.2,3.08-2.35,4.82-2.76,3.12-.75,5.77-2.27,8.28-4.07,1.41-1.01,2.87-.86,4.28-.55,2.47.55,4.28,2.76,3.8,4.44-.45,1.56-1.49,3.16,1.34,3.47.52.06.48.81.27,1.27-.36.78-.61,1.73-1.22,2.27-2.5,2.22-4.95,4.54-7.72,6.39-4.07,2.71-7.61,5.95-10.73,9.65-1.38,1.64-2.69,3.19-4.86,3.85-1.32.4-2.2,1.5-2.96,2.7-4,6.25-7.61,12.78-13.03,18-.52.5-.87,1.21-1.2,1.87-2.91,5.83-6.8,11.07-9.69,16.95-2,4.07-4.48,7.98-6.79,11.94-3,5.13-5.27,10.35-4.47,16.51.49,3.81-.21,7.75.93,11.49,2.4,7.85,3.43,15.99,5.37,23.94,1.4,5.76,2.08,11.76,5.25,16.99.3.5.49,1.22.38,1.77-.24,1.24-.09,2.1,1.12,2.79.57.33.98,1.13,1.23,1.8,2.28,6.02,4.76,11.99,6.69,18.12,2.69,8.56,6.23,16.75,9.84,24.92,1.15,2.6,2.2,5.23,3.36,7.82.33.75.69,1.82,1.83,1.38,1.04-.4,1.51-1.39,1.1-2.46-1.26-3.34-.75-6.91-1.39-10.31-.88-4.64-.21-9.13.73-13.64.22-1.04.88-2.06.35-3.3-2.46.59-2.88,2.54-3.2,4.5-.4,2.47-.14,4.96-.01,7.44.04.74-.06,1.66-.97,1.78-.99.13-1.17-.78-1.2-1.52-.11-2.48-.19-4.95.43-7.41,1.88-7.44,6.8-12.73,12.83-16.78,8.26-5.54,17.48-9.29,26.89-12.52,4.07-1.4,8.22-2.72,12.01-4.69,2.89-1.5,5.87-2.89,8.91-3.56,5.87-1.31,11.63-3.12,17.6-4.01s11.54-2.67,17.03-4.9c1.46-.59,2.86-1.32,3.43-3.07.47-1.44,1.76-2.08,3.14-2.36,2.25-.46,3.06-1.93,3.03-4.04-.03-2.24-.07-4.47.76-6.62.33-.86.07-1.78-.49-2.47-1.32-1.63-2.58-3.28-4.54-4.31-3.62-1.89-7.07-4.18-9.97-6.98-5.07-4.89-11.46-7.84-16.85-12.22-.45-.37-1.16-.4-1.74-.62-2.54-1-5.01-2.57-7.64-2.89-3.03-.36-4.23-3.83-7.34-3.56-2.27-2.49-5.65-3.15-8.33-5-2.07-1.43-4.58-2.67-6.88-3.06-4.99-.84-8.14-3.48-10.41-7.66-.65-1.2-1.06-2.6-2.33-3.3-2.12-1.17-3.64-2.99-5.27-4.68-1.15-1.19-2.47-2.14-4.06-2.54-4.25-1.08-6.92-4.33-9.68-7.26-1.44-1.54-2.49-3.72-2.76-6.01-.43-3.54-.09-7.09,1.65-10.16,1.76-3.1,4.21-6.04,7.25-7.78,6.03-3.45,12.71-5.15,19.75-4.99,1.03.02,2.3-.01,2.55,1.07.64,2.82,3.22,3.54,5.38,5.37-1.24,1.08-2.22,2.03-3.3,2.83-.76.56-1.51,1.24-1.21,2.11.71,2.04-.67,3.2-1.56,4.63-1.53,2.46-1.61,2.86.27,4.9,4.04,4.38,8.79,7.59,14.88,8.47,6.45.93,12.64,2.76,18.34,5.95,8.12,4.53,15.65,10.01,22.94,15.71,6.63,5.2,13.84,9.65,19.97,15.47,3.23,3.07,7.03,5.68,9.43,9.47,2.59,4.09,5.73,7.75,8.42,11.76,1.28,1.91,2.24,3.79,2.46,6.12.72,7.57,2.92,14.88,5.08,22.07,2.5,8.29,3.67,17.01,7.52,24.89,1.11,2.27.42,4.6-.07,6.93-.64,3.06.6,4.45,3.69,4.38,1.61-.03,3.23-.1,4.84-.19,1.61-.1,3.04.4,3.95,1.67,1.75,2.43,4.17,4.24,5.89,6.71,2.78,3.98,6.53,7.21,10.13,10.26,3.39,2.88,6.27,6.27,9.77,9.01,3.53,2.76,6.02,6.58,9.34,9.55,0,0,30.18-41.99,67.37,8.22,1.76,2.37-1.09-5.81-1.5-8.74-.95-6.81-1.61-13.66-2.36-20.5-.24-2.22-.1-4.52-.62-6.66-1.91-7.89-1.67-16.05-3.19-23.99-1.08-5.66.31-11.41-.25-17.09-.43-4.37.68-7.81,4.64-10.09.81-.47,1.94-1.01,1.77-2.19-.42-3.05-.25-6.3-1.88-9-1.17-1.95-1.31-3.15.57-4.72,1.67-1.39,1.44-2.31-.68-3.19-1.56-.65-2.44-1.6-2.82-3.16-.47-1.95-1.88-2.32-3.44-1.67-1.24.52-2.34.33-3.57.32-2.21-.02-4.45.26-6.62.68-4.27.82-8.5,1.8-12.74,2.75-6.31,1.41-12.74,2.17-18.99,3.91-5.37,1.5-10.76,1.61-16.09-.6-2.41-1-4.49-2.63-7.04-3.39-1.22-.37-1.75-1.51-.81-2.67.63-.78,1.06-1.37.16-2.17-2.21-1.96-2.22-4.61-2.14-7.22.03-.88.09-1.59-.34-2.45-1.67-3.27-1.61-7.19-3.84-10.28-.2-.27-.23-.73-.19-1.09.56-4.83-1.73-8.83-3.77-12.89-.82-1.63-2.25-3.02-1.34-5.11.22-.5.02-1.09-.4-1.44-1.9-1.59-2.35-3.71-2.34-5.99.01-3.04-.92-5.89-2.02-8.64-.66-1.64-1.53-3.57-1.29-4.94.48-2.78-.81-4.84-1.77-6.99-1.01-2.25-1.54-4.6-2.34-6.86-1.87-5.3-1.89-10.9-3.44-16.22-.45-1.54,1.48-4.49,2.99-4.37,2.94.22,6.07-.11,8.69,1.64,3.33,2.21,6.99,2.54,10.75,1.98,6.25-.93,12.47-2.05,18.71-3.09l.32-.07c7.94-2.19,16.19-2.7,24.19-4.53,2.49-.57,4.95-.29,7.4.01,1.73.21,3.46.28,5.18.43,4.01.36,7.43,2.17,9.57,5.62,2.37,3.81,5.37,7.13,6.81,11.68,1.2,3.79,3.02,7.55,4.62,11.29,1.6,3.74,2.43,7.79,2.39,11.98-.05,4.84.21,9.66,2.2,14.25.93,2.13,1.34,4.56,1.72,6.83.54,3.29,1.79,6.5,1.59,9.89-.1,1.77.2,3.44.54,5.16,1.47,7.54,4.99,14.59,5.37,22.4.07,1.46.53,2.92.84,4.37,1.02,4.84,2.66,9.58,2.26,14.66-.16,2.04-.19,3.92-2.09,5.28-1.31.94-1.6,2.36-.27,3.49,2.4,2.04,2.92,4.82,3.3,7.67.49,3.57.96,7.13,1.35,10.71.29,2.69-.07,5.49,1.92,7.79.34.39.32,1.19.3,1.8-.32,9,1.86,17.76,2.62,26.66.76,8.9,2.55,17.7,3.5,26.58,42.26,23.44,49.89-3.19,49.89-3.19-1.44-5.36-3.75-10.48-5.53-15.76-4.68-13.92-8.21-28.17-11.75-42.41-2.1-8.46-3.95-16.98-5.29-25.6-1.26-8.09-3.47-15.98-4.75-24.07-.6-3.78-1.89-7.44-2.38-11.28-.48-3.81-1-7.71-2.24-11.32-3-8.8-2.66-18.14-4.89-27.04-.02-.07-.02-.14-.02-.2.54-7.5-2.27-14.56-2.81-21.92-.07-.96-.26-2.03-1.43-2.41-3.52-1.14-2.79-4.02-3.03-6.9,1.65.47,1.3,2.7,2.77,2.52,1.55-.19,1.25-1.96,1.97-2.9.45-.58,1.04-1.1,1.34-1.75.6-1.34,1.68-2.03,2.97-1.71,2.27.55,2.84-.71,3.18-2.45.24-1.22.5-2.43.7-3.66.42-2.55,2-3.81,4.63-4.27,1.76-.31,3.48-.77,5.13-1.47s3.07-1.09,4.75-.54c1.62.53,3.1.45,4.6-.75,2.35-1.89,5.9-.59,6.68,2.32.44,1.65.76,3.27,2.65,4.11,1.3.58,1.29,1.98,1.16,3.28-.26,2.72-.48,5.44-.71,8.16-.74,9.03-2.35,17.98-2.26,27.09.06,6.59.02,13.18.69,19.74.15,1.44.61,2.52,2.24,2.24,3.77-.64,5.98,1.12,7.85,4.24.98,1.63,2.02,3.05,2.08,5.01.03.87.22,1.78.84,2.43,1.97,2.09,2.15,4.48,1.88,7.25-.26,2.7-.15,5.6,2.39,8.26,1.05-3.19,1.66-6,2.89-8.5,0,0,9.77-48.65,34.04-3.44,1.23,2.5,1.84,5.31,2.89,8.5,2.54-2.67,2.65-5.56,2.39-8.26-.27-2.77-.1-5.16,1.88-7.25.61-.65.81-1.56.84-2.43.06-1.96,1.1-3.38,2.08-5.01,1.88-3.12,4.08-4.87,7.85-4.24,1.64.28,2.1-.8,2.24-2.24.68-6.57.63-13.15.69-19.74.09-9.11-1.52-18.06-2.26-27.09-.22-2.72-.45-5.45-.71-8.16-.12-1.3-.13-2.7,1.16-3.28,1.88-.84,2.2-2.46,2.65-4.11.78-2.91,4.34-4.21,6.68-2.32,1.5,1.2,2.98,1.28,4.6.75,1.68-.55,3.06-.18,4.75.54s3.37,1.16,5.13,1.47c2.63.46,4.21,1.73,4.63,4.27.2,1.22.46,2.44.7,3.66.34,1.74.91,3.01,3.18,2.45,1.29-.32,2.37.37,2.97,1.71.29.65.88,1.17,1.34,1.75.73.93.43,2.71,1.97,2.9,1.47.18,1.12-2.05,2.77-2.52-.24,2.87.49,5.75-3.03,6.9-1.17.38-1.36,1.45-1.43,2.41-.54,7.36-3.35,14.42-2.81,21.92,0,.07,0,.14-.02.2-2.22,8.9-1.88,18.25-4.89,27.04-1.23,3.61-1.75,7.5-2.24,11.32-.49,3.84-1.78,7.5-2.38,11.28-1.28,8.09-3.49,15.98-4.75,24.07-1.34,8.61-3.19,17.14-5.29,25.6-3.54,14.24-7.07,28.49-11.75,42.41-1.78,5.28-4.09,10.4-5.53,15.76,0,0,7.63,26.63,49.89,3.19.95-8.89,2.74-17.69,3.5-26.58.76-8.9,2.94-17.66,2.62-26.66-.02-.61-.04-1.4.3-1.8,1.99-2.29,1.63-5.1,1.92-7.79.39-3.58.86-7.15,1.35-10.71.39-2.85.9-5.63,3.3-7.67,1.33-1.13,1.03-2.55-.27-3.49-1.9-1.36-1.93-3.24-2.09-5.28-.4-5.08,1.24-9.82,2.26-14.66.31-1.45.77-2.91.84-4.37.39-7.81,3.9-14.86,5.37-22.4.34-1.72.64-3.4.54-5.16-.2-3.39,1.05-6.6,1.59-9.89.38-2.27.79-4.7,1.72-6.83,1.99-4.6,2.24-9.41,2.2-14.25-.04-4.2.78-8.24,2.39-11.98,1.6-3.74,3.42-7.49,4.62-11.29,1.44-4.55,4.45-7.87,6.81-11.68,2.14-3.45,5.56-5.26,9.57-5.62,1.72-.16,3.45-.22,5.18-.43,2.45-.3,4.91-.58,7.4-.01,8,1.83,16.25,2.34,24.19,4.53l.32.07c6.23,1.04,12.46,2.16,18.71,3.09,3.76.56,7.42.24,10.75-1.98,2.62-1.74,5.75-1.41,8.69-1.64,1.51-.12,3.44,2.83,2.99,4.37-1.54,5.31-1.57,10.92-3.44,16.22-.79,2.25-1.33,4.6-2.34,6.86-.96,2.15-2.25,4.21-1.77,6.99.24,1.37-.63,3.31-1.29,4.94-1.11,2.74-2.04,5.6-2.02,8.64.01,2.28-.45,4.39-2.34,5.99-.42.35-.62.93-.4,1.44.91,2.09-.52,3.49-1.34,5.11-2.04,4.06-4.33,8.06-3.77,12.89.04.36,0,.82-.19,1.09-2.23,3.08-2.16,7.01-3.84,10.28-.44.85-.37,1.56-.34,2.45.09,2.61.07,5.26-2.14,7.22-.9.8-.47,1.4.16,2.17.94,1.15.41,2.3-.81,2.67-2.54.76-4.62,2.39-7.04,3.39-5.33,2.22-10.71,2.1-16.09.6-6.25-1.74-12.68-2.51-18.99-3.91-4.24-.95-8.48-1.93-12.74-2.75-2.17-.42-4.41-.7-6.62-.68-1.23,0-2.34.2-3.57-.32-1.56-.66-2.97-.28-3.44,1.67-.37,1.56-1.26,2.52-2.82,3.16-2.12.88-2.35,1.8-.68,3.19,1.88,1.57,1.75,2.77.57,4.72-1.63,2.7-1.45,5.96-1.88,9-.17,1.19.96,1.72,1.77,2.19,3.96,2.28,5.08,5.71,4.64,10.09-.56,5.68.83,11.43-.25,17.09-1.51,7.94-1.27,16.1-3.19,23.99-.52,2.15-.38,4.44-.62,6.66-.75,6.84-1.41,13.69-2.36,20.5-.41,2.93-3.26,11.11-1.5,8.74,37.19-50.21,67.37-8.22,67.37-8.22,3.32-2.97,5.81-6.79,9.34-9.55,3.5-2.74,6.38-6.13,9.77-9.01,3.6-3.05,7.35-6.28,10.13-10.26,1.72-2.47,4.14-4.27,5.89-6.71.92-1.27,2.34-1.77,3.95-1.67,1.61.1,3.23.16,4.84.19,3.09.06,4.34-1.32,3.69-4.38-.49-2.33-1.18-4.66-.07-6.93,3.85-7.89,5.02-16.6,7.52-24.89,2.17-7.19,4.37-14.5,5.08-22.07.22-2.33,1.18-4.21,2.46-6.12,2.69-4,5.83-7.67,8.42-11.76,2.4-3.8,6.2-6.4,9.43-9.47,6.13-5.82,13.34-10.28,19.97-15.47,7.28-5.71,14.82-11.18,22.94-15.71,5.7-3.19,11.9-5.02,18.34-5.95,6.1-.88,10.84-4.09,14.88-8.47,1.88-2.03,1.8-2.44.27-4.9-.89-1.43-2.27-2.59-1.56-4.63.3-.87-.45-1.55-1.21-2.11-1.08-.8-2.06-1.75-3.3-2.83,2.17-1.82,4.74-2.54,5.38-5.37.25-1.09,1.52-1.05,2.55-1.07,7.05-.16,13.72,1.54,19.75,4.99,3.04,1.74,5.49,4.67,7.25,7.78,1.74,3.07,2.08,6.62,1.65,10.16-.28,2.29-1.32,4.47-2.76,6.01-2.76,2.94-5.44,6.18-9.68,7.26-1.58.4-2.91,1.34-4.06,2.54-1.63,1.69-3.14,3.52-5.27,4.68-1.27.7-1.68,2.1-2.33,3.3-2.27,4.18-5.42,6.83-10.41,7.66-2.3.39-4.81,1.63-6.88,3.06-2.68,1.85-6.06,2.51-8.33,5-3.11-.27-4.31,3.2-7.34,3.56-2.62.32-5.09,1.89-7.64,2.89-.57.23-1.29.26-1.74.62-5.39,4.38-11.78,7.33-16.85,12.22-2.9,2.8-6.35,5.09-9.97,6.98-1.97,1.03-3.22,2.68-4.54,4.31-.56.69-.82,1.61-.49,2.47.83,2.15.79,4.38.76,6.62-.03,2.11.78,3.57,3.03,4.04,1.37.28,2.66.92,3.14,2.36.58,1.75,1.97,2.48,3.43,3.07,5.49,2.24,11.17,4.02,17.03,4.9s11.73,2.71,17.6,4.01c3.04.68,6.02,2.06,8.91,3.56,3.79,1.97,7.95,3.3,12.01,4.69,9.41,3.23,18.63,6.98,26.89,12.52,6.03,4.04,10.95,9.34,12.83,16.78.62,2.46.55,4.93.43,7.41-.03.74-.21,1.65-1.2,1.52-.91-.12-1-1.04-.97-1.78.13-2.48.39-4.97-.01-7.44-.32-1.97-.73-3.91-3.2-4.5-.53,1.24.13,2.26.35,3.3.94,4.51,1.61,9,.73,13.64-.64,3.4-.13,6.96-1.39,10.31-.4,1.07.06,2.06,1.1,2.46,1.14.44,1.5-.63,1.83-1.38,1.16-2.59,2.22-5.23,3.36-7.82,3.61-8.18,7.15-16.37,9.84-24.92,1.93-6.14,4.41-12.1,6.69-18.12.25-.67.66-1.48,1.23-1.8,1.21-.7,1.36-1.56,1.12-2.79-.11-.55.08-1.28.38-1.77,3.17-5.23,3.85-11.23,5.25-16.99,1.93-7.94,2.97-16.09,5.37-23.94,1.14-3.74.43-7.68.93-11.49.8-6.16-1.47-11.38-4.47-16.51-2.31-3.96-4.79-7.87-6.79-11.94-2.89-5.88-6.78-11.12-9.69-16.95-.33-.66-.68-1.37-1.2-1.87-5.43-5.22-9.03-11.75-13.03-18-.77-1.19-1.64-2.29-2.96-2.7-2.17-.66-3.48-2.21-4.86-3.85-3.12-3.7-6.66-6.94-10.73-9.65-2.77-1.84-5.22-4.17-7.72-6.39-.6-.54-.86-1.48-1.22-2.27-.21-.46-.25-1.21.27-1.27,2.83-.3,1.79-1.91,1.34-3.47-.48-1.68,1.33-3.89,3.8-4.44,1.41-.31,2.87-.46,4.28.55,2.51,1.8,5.16,3.32,8.28,4.07,1.74.42,3.43,1.57,4.82,2.76,4.93,4.25,11.18,6.44,16.18,10.56,6.3,5.19,12.74,10.23,17.46,17.03,1.68,2.42,3.92,4.38,5.18,7.18.9,2,4.86,3,6.92,2.3.54-.18.8-.56.84-1.09.07-.99.26-1.99.15-2.96-.4-3.59-.05-7.35-3.09-10.25-1.88-1.79-1.73-2.93.54-4.38,1.85-1.19.9-2.42.38-3.49-2.17-4.4-.59-8.45,1-12.5.26-.66.96-.7,1.61-.59,3.43.54,6.85,1.27,10.24-.31.67-.31,1.48.02,2.08.53,2.48,2.12,5.45,3.46,8.26,5.03,2.04,1.14,3.21,3.08,4.83,4.59.73.69.64,1.58.38,2.44-1.18,3.8.23,7.34,1.08,10.93.29,1.23,1.55,1.54,2.34,2.29.54.51,1.46,1.21.92,1.81-1.43,1.59-.3,2.83.04,4.33,1.84,8.1,3.12,16.22,2.96,24.63-.21,10.92-2.67,21.36-5.17,31.87-1.74,7.35-2.48,14.94-1.82,22.47.59,6.77-.29,13.35-1.23,19.98-.87,6.13-1.94,12.23-2.04,18.49-.08,4.81-1.13,9.61-1.71,14.41-1.07,8.74-2.52,17.41-3.94,26.09-1.42,8.69-3.06,17.33-5.41,25.79-1.75,6.29-4,12.49-5.54,18.8-1.64,6.73-3.9,13.7-1.47,20.83-.49,4.17.46,8.24.94,12.72,3.58-.43,7.26-.67,10.87-1.33,8.52-1.57,17.07-1.2,25.64-.87,3.31,1.94,7.06.29,10.52,1.33,3.32,1,6.74,1.67,10.12,2.5,2.55.63,4.98,1.44,7.12,3.1,1.57,1.22,3.44,2,2.88,4.61-.21.98.8,1.77,1.48,2.49,4.69,4.99,7.7,10.91,9.57,17.44.41,1.42.86,2.96.71,4.38-.29,2.87-.24,5.68.09,8.53.12,1-.13,1.96-.71,2.84-1.34,2.01-.97,4.4-1.42,6.61-.15.73.1,1.76.62,2.29.43.44.9.85,1.36,1.27,4.11,3.79,4.41,4.87,2.51,9.99-.57,1.53-.93,3.07-1.14,4.69-.26,2.02-.58,4.06-1.98,5.73-.29.35-.44.79-.51,1.24-.8,5.59-3.73,10.11-7.22,14.35-.4.48-.93.93-.84,1.59.21,1.49-.77,2.17-1.71,3.04-1.34,1.25-2.9,2.43-2.96,4.55,0,.24-.08.58-.25.68-2.4,1.45-3.17,4.08-4.69,6.17-2.93,4.02-5.63,7.99-6.67,12.92-.18.84-.22,2.07-.77,2.42-2.84,1.82-3.01,4.98-4.17,7.63-.45,1.03-.94,2.02-1.8,2.8-1.17,1.05-1.42,2.5-1.92,3.91-1.44,4.06-2.41,8.34-5.03,11.91-.4.55-.93,1.52-1.17,2.16-1.91,5.16-5.21,9.43-8.54,13.73-1.74,2.24-3.33,4.62-4.96,6.95-2.58,3.69-6.15,6.48-8.82,10.06-.29.39-.75.65-1.39.56-.76-.95.02-1.62.64-2.07,1.97-1.44,2.16-3.86,3.35-5.73.28-.44.23-.99-.25-1.32-.46-.31-.99-.16-1.39.15-2.17,1.67-4.31,3.37-5.54,5.92-.98,2.04-2.14,3.9-4.1,5.19-.6.39-1,1.09-1.43,1.7-.37.5-.7,1.09-.22,1.69.45.55,1.08.58,1.69.3.45-.2.85-.5,1.29-.74.45-.25.96-.39,1.36.02.52.53.39,1.2.04,1.71-.56.81-1.19,1.6-1.89,2.29-2.02,2.01-4.32,3.77-5.47,6.51-.14.33-.4.69-.71.85-4.55,2.41-6.88,7.06-10.21,10.62-2.95,3.16-6.11,6.08-9.16,9.13-1.28,1.28-3.02,2.33-2.63,4.61.05.31-.16.8-.42,1-3.92,3.17-5.31,8.73-10.37,10.84-1.3.54-1.71,2.12-2.69,3.03-2.43,2.28-4.01,5.43-7.17,6.98-.51.25-.91.86-1.19,1.39-2.36,4.59-5.77,8.3-9.48,11.82-1.6,1.52-2.78,3.49-4.08,5.3-1.9,2.65-3.87,5.18-6.96,6.56-.55.25-1.21.61-1.47,1.11-1.7,3.26-4.64,5.43-6.98,8.12-1.3,1.5-2.22,3.32-2.52,5.28-.5,3.24-2.05,5.63-5.19,6.83-1.02.39-1.94,1.1-2.84,1.76-4.17,3.04-7.09,7.59-11.98,9.84-1.38.64-2.45,2.08-3.19,3.57-.27.55-.57,1.26-1.06,1.5-4.14,2.03-5.3,6.43-7.8,9.74-1.21,1.61-2.42,3.19-4.05,4.32-3.2,2.21-6.06,4.71-8.12,8.05-.67,1.1-1.63,1.84-2.92,2.01-2.26.3-4.35,1.27-6.02,2.82-1.03.96-2.47,1.15-3.78,1.5-2.01.55-4.06.96-5.68,2.44-.42.38-1.21.75-1.77.77-3.76.11-6.85,1.59-9.67,4.07-1.32,1.16-2.88,2.43-5.03,1.91-.89-.22-1.69.35-2.34.95-1.2,1.11-2.54,1.96-4.01,2.67-1.62.78-2.92,2.08-3.15,3.92-.24,1.91-1.41,2.93-2.94,3.51-5.14,1.95-7.84,6.21-10.31,10.68-.37.67-.58,1.53-1.38,1.57-3.43.2-4.29,3.12-5.56,5.39-.86,1.54-1.66,3-2.97,4.2-2.06,1.89-3.63,4.03-3.78,7.02-.12,2.28-1.51,3.54-3.79,3.92-2.55.43-5.11.68-7.5,2.01-1.66.92-4.63-1.23-4.95-3.31-.21-1.35-.12-2.74-.36-4.08-.61-3.49-1.53-3.99-4.81-2.93-1.01.33-1.94,1.17-3.29.64-.1-1.48,1.3-1.96,1.96-2.9,1.02-1.47.85-2.71-.84-3.15-2.12-.56-2.23-2.12-2.49-3.67-.12-.69-.06-1.66.34-2.16,2.57-3.19.96-6.95,1.6-10.39.15-.79.1-1.45-.43-2.09-.82-1-.73-2.15-.15-3.15,1.29-2.22.86-4.47.55-6.81-.41-3.14-.58-6.32-.88-9.48-.14-1.5-.45-3.95-.74-5.43-.35-1.8-.39-3.47.29-5.29.95-2.54.62-5.31-.75-7.54-2.17-3.54-3.42-7.06-2.45-11.24.33-1.44.22-3.03-.42-4.47-.56-1.27-2.07-1.62-3.21-.83-3.87,2.69-6.91,6.26-10.14,9.63-.25.26-.53.59-.61.93-1.01,4-3.48,6.97-6.5,9.63-1.44,1.26-1.96,3.03-2.36,4.93-1.58,7.47-.3,7-8.45,11.48-.44.24-.88.46-1.32.69-1.64.86-2.76,2.18-3.09,3.99-.3,1.64-1.38,2.91-1.9,4.34-1.27,3.53-4.06,5.58-6.62,7.85-1.19,1.05-1.85,1.9-1.09,3.45.88,1.78.22,3.08-1.34,4.12-1.92,1.28-3.36,2.88-3.78,5.3-.14.81-.66,1.66-1.24,2.26-2.14,2.2-2.71,4.94-2.96,7.84-.26,2.94-2.2,4.95-5.04,4.64-2.57-.28-5.56.45-7.45-2.34-.22-.33-.54-.5-.91-.61-1.84-.53-3.4-1.83-4.07-3.61-.76-2.03.34-2.8,1.26-3.65,1.23-1.13,2.04-2.27.3-3.66-.62-.49-.91-1.17-.77-1.98.35-2,.37-3.92-.73-5.77-.45-.76-.17-1.79.28-2.51,1.95-3.17.85-6.23-.45-9.27-.56-1.31-.86-2.71-.95-4.13-.11-1.88-.91-3.74-.84-5.46.15-3.67-1.65-6.99-1.14-10.75.48-3.54.51-7.09,1.43-10.64.67-2.6,1.18-5.39.27-8.31-1-3.2-.12-6.66.06-9.96.1-1.76.97-3.51.37-5.39-.37-1.15.47-1.85,1.07-2.62,1.09-1.39,2.01-2.83,2.17-4.66.11-1.31.77-2.41,1.79-3.16,2.42-1.78,3.73-4.29,4.74-6.99.64-1.7,1.49-3.02,3.23-3.84,1.69-.8,2.6-2.3,2.2-4.3-.67-3.38.91-6.2,2.89-8.49,2.65-3.06,5.76-5.64,9.92-6.88,2.57-.77,3.94-3.56,4.07-6.09.09-1.64.64-2.43,1.61-3.39,1.45-1.46,3.38-2.58,3.66-4.96.05-.41.52-.87.91-1.14-13.61-19.46-86.47-4.68-86.47-4.68-1.06,1.81-2.91,2.67-4.52,3.8-1.57,1.1-2.95,2.32-3.57,4.17-1.12,3.34-3.3,5.77-6.23,7.62-.94.6-1.89,1.22-2.72,1.97-1.64,1.49-1.39,2.84.62,3.62.57.22,1.21.27,1.8.46.68.22,1.11.85.85,1.44-1.19,2.68-.7,5.9-3.9,7.95-3.75,2.4-4.91,6.9-6.55,10.87-.28.69-.35,1.62-.84,2.04-4.33,3.67-6.6,9.17-11.76,12.27-3.17,1.91-5.1,5.78-9.13,6.76-3.45,4.2-8.52,6.31-12.57,9.75-.38.32-.9.54-1.15.93"/><path class="cls-1" d="m280.7,208.45c-1.02-1.06-1.75-2.4-2.64-3.59-2.07-2.76-3.31-3.11-6.31-1.41-2.7,1.53-5.22,3.37-8.06,4.67-2.42,1.11-4.85,2.2-7.58,2.34,3.35-2.12,7.14-3.4,10.15-6.04,1.4-1.23,2.78-2.47,3.8-4.06.66-1.03.92-2.01-.01-3.05-.93-1.03-1.96-1.51-3.3-.88-2.25,1.04-4.22,2.63-6.65,3.31l.08.06c.06-1.59,1.32-2.31,2.36-3.17.93-.77,2.24-1.12,2.83-2.54-1.24-.12-2.16.39-3.04,1-6.26,4.38-13.43,6.21-20.83,7.42-2.82.46-5.36,2.09-8.26,2.18-3.38.1-6.68.67-9.95,1.4-9.2,2.06-18.55,3.51-27.5,6.55-4.56,1.55-8.73,4.1-13.33,5.6-.7.23-1.47.83-2.07.69-3.53-.8-4.9,2.48-7.33,3.72-.43.22-.68.77-.55,1.29.18.77.88.74,1.49.84,1.51.26,2.66-1.29,4.46-.95-.43,1.54-1.66,2-2.6,2.68-.9.66-1.97,1.1-2.83,1.79"/><path class="cls-1" d="m123.37,360.05c-1.05-.36-2.02-.95-3.03-1.44-2.23-1.09-4.51-1.93-7.01-2.34-1.99-.33-4.13-.4-5.88-1.9-1.24-1.06-3.05-.89-4.65-1.13-4.17-.62-8.35-1.19-12.5-1.93-2.1-.38-4.21-.69-6.3-.39-2.44.35-4.54-1.4-6.97-.96-5.18,1.53-10.64.58-15.86,1.9-4.81,1.22-6.91,3.03-7.4,7.92-.25,2.56-1.03,4.43-2.89,6.14-1.82,1.66-1.7,2.12-.03,3.99,1.64,1.83,3.5,3.47,2.96,6.43-.14.76.8,1.76,1.33,2.59,1.28,1.98,2.59,3.93,3.93,5.87.49.71.96,1.7,1.67,1.96,2.93,1.09,3.78,3.73,4.99,6.15,1.4,2.8,4.11,4.63,5.56,7.44.58,1.12,2.92.62,2.59,3.08-.13,1,2.2,1.77,2.98,3.1.85,1.45,2.22,2.48,3.68,3.06,4.02,1.61,7.15,4.52,10.44,7.09,2.26,1.77,3.72,4.56,5.99,6.47,3.49,2.94,6.95,5.92,10.42,8.87,4.28,3.63,9.58,6.13,12.69,11.12,1.4,2.24,3.7,3.62,5.66,5.32.6.52,1.2.94,2,.65,2.14-.8,3.05.62,3.61,2.18,1.3,3.62,4.65,5.37,7.16,7.83,1.1,1.08,2.56,1.81,3.5,3.19.85,1.25,1.97,2.39,3.67,2.15,28.4-55.6-22.31-104.4-22.31-104.4Z"/><path class="cls-1" d="m220.92,520.99c4.11,3.73,9.03,6.24,13.49,9.43.59.42,1.06,1.04,1.51,1.62,1.92,2.49,2.46,2.65,5.21,1.36,2.33-1.09,2.18-1.01,3.45,1.17,1.94,3.34,4.17,6.46,8.64,6.57,1.16.03,2.15.51,3.02,1.28,2.8,2.49,5.75,4.72,9.67,5.13.24.02.56.09.69.26,2.2,2.87,5.11,1.79,7.85,1.36,1.72-.27,3.41-.51,5.17-.53,2.37-.02,3.08-1.04,2.66-3.36-.34-1.83-1.06-3.44-2.09-5.08-1.88-2.99-3.47-6.26-3.56-9.95-.02-1.03-.2-1.95-.62-2.87-.87-1.93-1.78-3.84-2.5-5.82,0,0-44.75-20.22-52.59-.57Z"/><path class="cls-1" d="m79.48,343.12c-.92-.68-1.52-.18-1.91.86-1.15,3.03-.69,3.77,2.64,4.41,2.47.47,4.93.37,7.4.25,1.35-.06,2.37-.65,3.02-1.84.79-1.45.29-2.84-1.34-3.12-1.57-.26-3.2-.14-4.42-.17-2.09.36-3.77.8-5.39-.39Z"/><path class="cls-1" d="m297.13,579.05c.1.73,2.71,2.21,3.97,2.24,1.24.02,1.35-.88,1.29-1.76-.1-1.35-.26-2.74-1.84-2.97-1.51.01-3.54,1.58-3.41,2.49Z"/><path class="cls-1" d="m199.42,203.98c2.95-.27,5.85-.77,8.6-1.95-2.92.38-5.9.51-8.6,1.95Z"/><path class="cls-1" d="m87.34,480.68c-.54.81.05,1.38.54,1.87.79.78,1.74,1.56,2.81.62.55-.49-.01-1.12-.51-1.47-.69-.48-1.43-.88-2.06-1.26-.37.11-.69.1-.79.25Z"/><path class="cls-1" d="m137.86,360.16c-.15.03-.39.41-.34.54.42,1.2,1.44,1.42,2.85,1.58-.27-1.74-1.05-2.43-2.51-2.12Z"/><path class="cls-1" d="m132.91,357.8c-.91-1.65-2.18-1.8-4.12-1.82,1.26,1.49,2.17,2.4,4.12,1.82Z"/><path class="cls-1" d="m238.87,134.04c.36-.17.49-.53.29-.87-.09-.15-.4-.28-.58-.25-.38.07-.55.37-.51.77.15.38.46.52.81.36Z"/><path class="cls-1" d="m355.58,551.61c.11-.11.07-.4.04-.6,0-.05-.2-.13-.3-.12-.29.04-.38.22-.28.51.12.26.35.39.54.21Z"/></g></svg>